<?xml version="1.0" encoding="utf-8"?>
<!-- Generator: Adobe Illustrator 26.1.0, SVG Export Plug-In . SVG Version: 6.00 Build 0)  -->
<svg version="1.1" id="_Слой_1" xmlns="http://www.w3.org/2000/svg" xmlns:xlink="http://www.w3.org/1999/xlink" x="0px"
	 y="0px" viewBox="0 0 980 1080" style="enable-background:new 0 0 980 1080;" xml:space="preserve">
<style type="text/css">
	.st0{fill:none;}
	.st1{fill:#FFFFFF;}
	.st2{fill:#FF8730;}
</style>
<rect class="st0" width="980" height="1080"/>
<g>
	<path class="st1" d="M740,780c0,33.1-26.9,60-60,60c-29.1,0-53.4-20.7-58.8-48.2c-9.7-48.5-33.6-91.9-67.3-125.6
		s-77.1-57.6-125.6-67.3c-27.5-5.5-48.2-29.7-48.2-58.8s20.7-53.4,48.2-58.8c48.5-9.7,91.9-33.6,125.6-67.3s57.6-77.1,67.3-125.6
		c5.5-27.5,29.7-48.2,58.8-48.2c33.1,0,60,26.9,60,60c0,29.1-20.7,53.4-48.2,58.8c-48.5,9.7-91.9,33.6-125.6,67.3
		c-30.9,30.9-53.7,70.1-64.7,113.8c11,43.8,33.7,82.9,64.7,113.8c33.7,33.7,77.1,57.6,125.6,67.3C719.3,726.6,740,750.9,740,780z
		 M308.4,540c0-61.4,14.9-122.8,44.6-178.6c4.5-8.4,7-18,7-28.2c0-33.1-26.9-60-60-60s-60,26.9-60,60c0,10.2,2.5,19.8,7,28.2
		c29.7,55.8,44.6,117.2,44.6,178.6S276.7,662.8,247,718.6c-4.5,8.4-7,18-7,28.2c0,33.1,26.9,60,60,60s60-26.9,60-60
		c0-10.2-2.5-19.8-7-28.2C323.3,662.8,308.4,601.4,308.4,540L308.4,540z"/>
	<circle class="st2" cx="440" cy="540" r="43"/>
</g>
</svg>
